<svg xmlns="http://www.w3.org/2000/svg" width="155.97" height="56.5473" viewBox="-77.9526 -28.2706 155.97 56.5473">
<polygon points="-50.4829,-11.5076 -54.1962,-10.6975 -51.8726,-14.8605" style="fill:#808080;stroke:black;stroke-width:0.1" />
<polygon points="6.83862,-7.08259 7.26498,-10.6531 10.7581,-10.0308" style="fill:#808080;stroke:black;stroke-width:0.1" />
<polygon points="13.5121,-2.15052 10.7896,3.11557 8.89741,0.11" style="fill:#808080;stroke:black;stroke-width:0.1" />
<polygon points="-54.1962,-10.6975 -54.2959,-14.3335 -51.8726,-14.8605" style="fill:#808080;stroke:black;stroke-width:0.1" />
<polygon points="-57.1569,-9.24189 -60.3425,-5.4556 -62.2056,-8.63761" style="fill:#808080;stroke:black;stroke-width:0.1" />
<polygon points="24.3842,-3.31595 23.1042,-6.48944 27.8704,-4.64288" style="fill:#808080;stroke:black;stroke-width:0.1" />
<polygon points="26.4739,-15.2732 28.0719,-11.9656 24.9818,-12.4472" style="fill:#808080;stroke:black;stroke-width:0.1" />
<polygon points="-50.4829,-11.5076 -51.6938,-8.06936 -54.1962,-10.6975" style="fill:#808080;stroke:black;stroke-width:0.1" />
<polygon points="40.952,5.93718 44.647,5.60472 40.8254,9.64209" style="fill:#808080;stroke:black;stroke-width:0.1" />
<polygon points="-41.1845,-9.89912 -39.0566,-14.7662 -37.5038,-10.2625" style="fill:#808080;stroke:black;stroke-width:0.1" />
<polygon points="-56.601,-13.4191 -54.1962,-10.6975 -57.1569,-9.24189" style="fill:#808080;stroke:black;stroke-width:0.1" />
<polygon points="-44.3463,-11.739 -44.4821,-8.17739 -48.0904,-8.75605" style="fill:#808080;stroke:black;stroke-width:0.1" />
<polygon points="-42.5039,-14.8209 -39.0566,-14.7662 -41.1845,-9.89912" style="fill:#808080;stroke:black;stroke-width:0.1" />
<polygon points="-60.6105,-10.5332 -57.1569,-9.24189 -62.2056,-8.63761" style="fill:#808080;stroke:black;stroke-width:0.1" />
<polygon points="-54.1962,-10.6975 -56.601,-13.4191 -54.2959,-14.3335" style="fill:#808080;stroke:black;stroke-width:0.1" />
<polygon points="37.9163,-12.1738 40.2657,-15.177 40.4068,-10.108" style="fill:#808080;stroke:black;stroke-width:0.1" />
<polygon points="20.2707,-7.98874 20.4616,-12.0599 22.9652,-9.95106" style="fill:#808080;stroke:black;stroke-width:0.1" />
<polygon points="-58.7252,-12.1409 -57.1569,-9.24189 -60.6105,-10.5332" style="fill:#808080;stroke:black;stroke-width:0.1" />
<polygon points="34.7403,-5.96554 31.0754,-6.39473 31.2313,-10.0934" style="fill:#808080;stroke:black;stroke-width:0.1" />
<polygon points="-60.3425,-5.4556 -61.264,-2.29095 -64.3601,-4.19458" style="fill:#808080;stroke:black;stroke-width:0.1" />
<polygon points="-42.5039,-14.8209 -41.1845,-9.89912 -44.3463,-11.739" style="fill:#808080;stroke:black;stroke-width:0.1" />
<polygon points="27.8704,-4.64288 32.2198,-1.57063 27.2215,-1.08542" style="fill:#808080;stroke:black;stroke-width:0.1" />
<polygon points="-46.9678,-4.53844 -48.0904,-8.75605 -44.4821,-8.17739" style="fill:#808080;stroke:black;stroke-width:0.1" />
<polygon points="-10.3384,-6.79158 -10.0122,-10.3961 -6.48911,-9.78006" style="fill:#808080;stroke:black;stroke-width:0.1" />
<polygon points="-10.3158,6.24803 -7.14994,4.51096 -7.16894,8.03792" style="fill:#808080;stroke:black;stroke-width:0.1" />
<polygon points="-41.6316,10.5035 -43.6478,15.1617 -45.2373,11.6159" style="fill:#808080;stroke:black;stroke-width:0.1" />
<polygon points="-25.264,-14.708 -21.8152,-14.7256 -23.735,-9.5943" style="fill:#808080;stroke:black;stroke-width:0.1" />
<polygon points="0.144976,-6.48592 3.44333,-8.10613 4.20342,-4.83472" style="fill:#808080;stroke:black;stroke-width:0.1" />
<polygon points="10.7581,-10.0308 7.26498,-10.6531 9.22884,-15.1291" style="fill:#808080;stroke:black;stroke-width:0.1" />
<polygon points="-20.2216,-11.3076 -21.8152,-14.7256 -18.3662,-14.7527" style="fill:#808080;stroke:black;stroke-width:0.1" />
<polygon points="23.7769,10.2241 20.2342,6.07187 23.96,5.42329" style="fill:#808080;stroke:black;stroke-width:0.1" />
<polygon points="-32.1609,-14.7082 -28.7126,-14.7015 -30.563,-11.3932" style="fill:#808080;stroke:black;stroke-width:0.1" />
<polygon points="-14.9171,-14.788 -16.8371,-9.64857 -18.3662,-14.7527" style="fill:#808080;stroke:black;stroke-width:0.1" />
<polygon points="-30.563,-11.3932 -28.7126,-14.7015 -27.4382,-9.52809" style="fill:#808080;stroke:black;stroke-width:0.1" />
<polygon points="-27.4382,-9.52809 -23.8346,-6.11403 -27.8405,-6.34075" style="fill:#808080;stroke:black;stroke-width:0.1" />
<polygon points="-23.735,-9.5943 -20.2216,-11.3076 -19.6308,-8.38709" style="fill:#808080;stroke:black;stroke-width:0.1" />
<polygon points="-4.56899,-14.9263 -2.97512,-11.5221 -6.48911,-9.78006" style="fill:#808080;stroke:black;stroke-width:0.1" />
<polygon points="-31.5816,11.894 -34.9675,12.3108 -32.7741,8.39315" style="fill:#808080;stroke:black;stroke-width:0.1" />
<polygon points="-1.98902,5.36484 -7.14994,4.51096 -5.28014,1.41926" style="fill:#808080;stroke:black;stroke-width:0.1" />
<polygon points="-6.48911,-9.78006 -2.97512,-11.5221 -2.38424,-8.60644" style="fill:#808080;stroke:black;stroke-width:0.1" />
<polygon points="-27.4382,-9.52809 -27.8405,-6.34075 -30.7054,-7.6625" style="fill:#808080;stroke:black;stroke-width:0.1" />
<polygon points="-6.48911,-9.78006 -8.01844,-14.8763 -4.56899,-14.9263" style="fill:#808080;stroke:black;stroke-width:0.1" />
<polygon points="5.77944,-15.081 3.93005,-11.7887 2.32998,-15.0302" style="fill:#808080;stroke:black;stroke-width:0.1" />
<polygon points="-37.687,-5.45769 -37.5038,-10.2625 -33.8646,-9.53996" style="fill:#808080;stroke:black;stroke-width:0.1" />
<polygon points="20.4616,-12.0599 23.0253,-15.2621 24.9818,-12.4472" style="fill:#808080;stroke:black;stroke-width:0.1" />
<polygon points="2.32998,-15.0302 0.409847,-9.8833 -1.11951,-14.978" style="fill:#808080;stroke:black;stroke-width:0.1" />
<polygon points="-61.4087,1.50245 -64.9552,0.707264 -61.264,-2.29095" style="fill:#808080;stroke:black;stroke-width:0.1" />
<polygon points="-64.6409,3.16463 -64.9552,0.707264 -61.4087,1.50245" style="fill:#808080;stroke:black;stroke-width:0.1" />
<polygon points="40.1298,-4.49973 41.6913,-7.26232 43.9992,-3.63909" style="fill:#808080;stroke:black;stroke-width:0.1" />
<polygon points="-55.3777,14.0228 -55.0015,10.4104 -53.0009,14.7123" style="fill:#808080;stroke:black;stroke-width:0.1" />
<polygon points="-63.9264,5.53674 -64.6409,3.16463 -61.4087,1.50245" style="fill:#808080;stroke:black;stroke-width:0.1" />
<polygon points="-63.9264,5.53674 -59.1212,4.5495 -62.8312,7.7589" style="fill:#808080;stroke:black;stroke-width:0.1" />
<polygon points="-55.0015,10.4104 -51.3593,11.4638 -53.0009,14.7123" style="fill:#808080;stroke:black;stroke-width:0.1" />
<polygon points="-50.4829,-11.5076 -45.9508,-14.8954 -44.3463,-11.739" style="fill:#808080;stroke:black;stroke-width:0.1" />
<polygon points="-64.3601,-4.19458 -61.264,-2.29095 -64.8607,-1.76832" style="fill:#808080;stroke:black;stroke-width:0.1" />
<polygon points="55.0659,-10.3297 51.4239,-11.3894 53.0654,-14.6361" style="fill:#808080;stroke:black;stroke-width:0.1" />
<polygon points="-51.3593,11.4638 -55.0015,10.4104 -52.3056,7.9666" style="fill:#808080;stroke:black;stroke-width:0.1" />
<polygon points="-62.8312,7.7589 -59.1212,4.5495 -58.0112,8.13222" style="fill:#808080;stroke:black;stroke-width:0.1" />
<polygon points="-53.8369,-5.59342 -49.8647,-5.58722 -51.7275,-3.10219" style="fill:#808080;stroke:black;stroke-width:0.1" />
<polygon points="-55.0015,10.4104 -58.0112,8.13222 -55.2328,5.30762" style="fill:#808080;stroke:black;stroke-width:0.1" />
<polygon points="-54.1962,-10.6975 -53.8369,-5.59342 -57.1569,-9.24189" style="fill:#808080;stroke:black;stroke-width:0.1" />
<polygon points="-61.264,-2.29095 -64.9552,0.707264 -64.8607,-1.76832" style="fill:#808080;stroke:black;stroke-width:0.1" />
<polygon points="-57.607,12.947 -55.0015,10.4104 -55.3777,14.0228" style="fill:#808080;stroke:black;stroke-width:0.1" />
<polygon points="-51.6938,-8.06936 -53.8369,-5.59342 -54.1962,-10.6975" style="fill:#808080;stroke:black;stroke-width:0.1" />
<polygon points="-51.3593,11.4638 -50.5413,14.9947 -53.0009,14.7123" style="fill:#808080;stroke:black;stroke-width:0.1" />
<polygon points="-61.264,-2.29095 -58.2391,-0.276077 -61.4087,1.50245" style="fill:#808080;stroke:black;stroke-width:0.1" />
<polygon points="-45.2373,11.6159 -48.3233,12.2215 -48.513,8.79324" style="fill:#808080;stroke:black;stroke-width:0.1" />
<polygon points="-51.7275,-3.10219 -54.4304,1.27478 -55.2211,-2.23548" style="fill:#808080;stroke:black;stroke-width:0.1" />
<polygon points="-44.3463,-11.739 -45.9508,-14.8954 -42.5039,-14.8209" style="fill:#808080;stroke:black;stroke-width:0.1" />
<polygon points="-45.2373,11.6159 -43.6478,15.1617 -47.0947,15.0885" style="fill:#808080;stroke:black;stroke-width:0.1" />
<polygon points="-40.2004,15.2161 -41.6316,10.5035 -38.3632,12.2643" style="fill:#808080;stroke:black;stroke-width:0.1" />
<polygon points="57.6714,-12.8652 59.6922,-11.4333 55.0659,-10.3297" style="fill:#808080;stroke:black;stroke-width:0.1" />
<polygon points="58.858,7.46876 60.8679,5.29395 62.27,8.72098" style="fill:#808080;stroke:black;stroke-width:0.1" />
<polygon points="-27.8405,-6.34075 -31.5234,-2.42618 -30.7054,-7.6625" style="fill:#808080;stroke:black;stroke-width:0.1" />
<polygon points="-36.7528,15.2531 -38.3632,12.2643 -34.9675,12.3108" style="fill:#808080;stroke:black;stroke-width:0.1" />
<polygon points="60.6749,10.6165 58.858,7.46876 62.27,8.72098" style="fill:#808080;stroke:black;stroke-width:0.1" />
<polygon points="-38.3632,12.2643 -36.7528,15.2531 -40.2004,15.2161" style="fill:#808080;stroke:black;stroke-width:0.1" />
<polygon points="58.0578,-8.03096 59.6922,-11.4333 61.4496,-9.68713" style="fill:#808080;stroke:black;stroke-width:0.1" />
<polygon points="50.6059,-14.9234 51.4239,-11.3894 48.388,-12.1555" style="fill:#808080;stroke:black;stroke-width:0.1" />
<polygon points="-13.9821,5.88826 -14.1653,10.6895 -17.8059,10.0377" style="fill:#808080;stroke:black;stroke-width:0.1" />
<polygon points="-22.9591,15.2541 -21.1083,11.9329 -19.5101,15.2266" style="fill:#808080;stroke:black;stroke-width:0.1" />
<polygon points="-57.607,12.947 -59.6278,11.5164 -55.0015,10.4104" style="fill:#808080;stroke:black;stroke-width:0.1" />
<polygon points="-51.3593,11.4638 -52.3056,7.9666 -48.513,8.79324" style="fill:#808080;stroke:black;stroke-width:0.1" />
<polygon points="-12.6116,15.149 -16.0609,15.191 -14.1653,10.6895" style="fill:#808080;stroke:black;stroke-width:0.1" />
<polygon points="-12.6116,15.149 -14.1653,10.6895 -10.4717,9.94886" style="fill:#808080;stroke:black;stroke-width:0.1" />
<polygon points="-50.5413,14.9947 -51.3593,11.4638 -48.3233,12.2215" style="fill:#808080;stroke:black;stroke-width:0.1" />
<polygon points="-16.0609,15.191 -19.5101,15.2266 -17.8059,10.0377" style="fill:#808080;stroke:black;stroke-width:0.1" />
<polygon points="-61.3852,9.7705 -62.8312,7.7589 -58.0112,8.13222" style="fill:#808080;stroke:black;stroke-width:0.1" />
<polygon points="-27.9612,10.796 -26.4079,15.2721 -29.8564,15.2791" style="fill:#808080;stroke:black;stroke-width:0.1" />
<polygon points="51.4239,-11.3894 52.37,-7.88778 48.5777,-8.72636" style="fill:#808080;stroke:black;stroke-width:0.1" />
<polygon points="-7.31128,11.7685 -9.16225,15.1021 -10.4717,9.94886" style="fill:#808080;stroke:black;stroke-width:0.1" />
<polygon points="-49.3973,-14.9887 -45.9508,-14.8954 -50.4829,-11.5076" style="fill:#808080;stroke:black;stroke-width:0.1" />
<polygon points="-3.88323,12.2785 -7.31128,11.7685 -3.45962,9.04469" style="fill:#808080;stroke:black;stroke-width:0.1" />
<polygon points="-50.4829,-11.5076 -51.8726,-14.8605 -49.3973,-14.9887" style="fill:#808080;stroke:black;stroke-width:0.1" />
<polygon points="10.7581,-10.0308 9.22884,-15.1291 12.6782,-15.1729" style="fill:#808080;stroke:black;stroke-width:0.1" />
<polygon points="-6.48911,-9.78006 -10.0122,-10.3961 -8.01844,-14.8763" style="fill:#808080;stroke:black;stroke-width:0.1" />
<polygon points="-11.4678,-14.8296 -13.3111,-11.6977 -14.9171,-14.788" style="fill:#808080;stroke:black;stroke-width:0.1" />
<polygon points="14.2719,-11.7631 12.6782,-15.1729 16.1274,-15.2107" style="fill:#808080;stroke:black;stroke-width:0.1" />
<polygon points="19.5764,-15.2412 17.6565,-10.1062 16.1274,-15.2107" style="fill:#808080;stroke:black;stroke-width:0.1" />
<polygon points="-25.264,-14.708 -23.735,-9.5943 -27.4382,-9.52809" style="fill:#808080;stroke:black;stroke-width:0.1" />
<polygon points="-41.3637,-6.14152 -41.1845,-9.89912 -37.5038,-10.2625" style="fill:#808080;stroke:black;stroke-width:0.1" />
<polygon points="14.8627,-8.84444 11.1534,-6.95442 10.7581,-10.0308" style="fill:#808080;stroke:black;stroke-width:0.1" />
<polygon points="-24.1123,6.3883 -22.2167,1.06226 -21.2699,5.20615" style="fill:#808080;stroke:black;stroke-width:0.1" />
<polygon points="10.7581,-10.0308 14.2719,-11.7631 14.8627,-8.84444" style="fill:#808080;stroke:black;stroke-width:0.1" />
<polygon points="31.2313,-10.0934 33.3704,-15.2562 34.9234,-10.7629" style="fill:#808080;stroke:black;stroke-width:0.1" />
<polygon points="47.3422,-5.83645 48.5777,-8.72636 50.7353,-4.78451" style="fill:#808080;stroke:black;stroke-width:0.1" />
<polygon points="39.1221,14.7928 40.8254,9.64209 42.5692,14.8587" style="fill:#808080;stroke:black;stroke-width:0.1" />
<polygon points="20.2707,-7.98874 23.1042,-6.48944 20.76,-3.82267" style="fill:#808080;stroke:black;stroke-width:0.1" />
<polygon points="37.5247,11.4563 34.0912,9.82686 37.667,7.72398" style="fill:#808080;stroke:black;stroke-width:0.1" />
<polygon points="54.8763,3.04025 58.0798,3.99534 55.4027,6.34135" style="fill:#808080;stroke:black;stroke-width:0.1" />
<polygon points="-41.6316,10.5035 -41.5516,7.28098 -38.2321,8.82907" style="fill:#808080;stroke:black;stroke-width:0.1" />
<polygon points="45.3022,-11.5601 40.4068,-10.108 43.7128,-15.1105" style="fill:#808080;stroke:black;stroke-width:0.1" />
<polygon points="54.8763,3.04025 56.1777,-0.322678 58.0798,3.99534" style="fill:#808080;stroke:black;stroke-width:0.1" />
<polygon points="31.2313,-10.0934 28.0719,-11.9656 29.9223,-15.2714" style="fill:#808080;stroke:black;stroke-width:0.1" />
<polygon points="-33.8646,-9.53996 -32.1609,-14.7082 -30.563,-11.3932" style="fill:#808080;stroke:black;stroke-width:0.1" />
<polygon points="26.4739,-15.2732 29.9223,-15.2714 28.0719,-11.9656" style="fill:#808080;stroke:black;stroke-width:0.1" />
<polygon points="45.3022,-11.5601 48.388,-12.1555 48.5777,-8.72636" style="fill:#808080;stroke:black;stroke-width:0.1" />
<polygon points="34.7403,-5.96554 34.9234,-10.7629 37.3604,-8.33776" style="fill:#808080;stroke:black;stroke-width:0.1" />
<polygon points="55.2576,-6.14125 57.547,-3.65857 53.6953,-2.91159" style="fill:#808080;stroke:black;stroke-width:0.1" />
<polygon points="51.4239,-11.3894 50.6059,-14.9234 53.0654,-14.6361" style="fill:#808080;stroke:black;stroke-width:0.1" />
<polygon points="55.4422,-13.9431 57.6714,-12.8652 55.0659,-10.3297" style="fill:#808080;stroke:black;stroke-width:0.1" />
<polygon points="-46.9678,-4.53844 -43.9749,-1.84654 -47.7184,-0.216596" style="fill:#808080;stroke:black;stroke-width:0.1" />
<polygon points="40.4068,-10.108 40.2657,-15.177 43.7128,-15.1105" style="fill:#808080;stroke:black;stroke-width:0.1" />
<polygon points="53.0654,-14.6361 55.4422,-13.9431 55.0659,-10.3297" style="fill:#808080;stroke:black;stroke-width:0.1" />
<polygon points="-51.6938,-8.06936 -50.4829,-11.5076 -48.0904,-8.75605" style="fill:#808080;stroke:black;stroke-width:0.1" />
<polygon points="51.4239,-11.3894 55.0659,-10.3297 52.37,-7.88778" style="fill:#808080;stroke:black;stroke-width:0.1" />
<polygon points="59.6922,-11.4333 58.0578,-8.03096 55.0659,-10.3297" style="fill:#808080;stroke:black;stroke-width:0.1" />
<polygon points="17.6565,-10.1062 14.2719,-11.7631 16.1274,-15.2107" style="fill:#808080;stroke:black;stroke-width:0.1" />
<polygon points="11.5344,14.8041 8.08505,14.8482 9.93598,11.5164" style="fill:#808080;stroke:black;stroke-width:0.1" />
<polygon points="60.3076,-5.5521 57.547,-3.65857 58.0578,-8.03096" style="fill:#808080;stroke:black;stroke-width:0.1" />
<polygon points="64.7052,-3.08126 65.0195,-0.623896 60.9635,-1.35391" style="fill:#808080;stroke:black;stroke-width:0.1" />
<polygon points="-5.7128,15.052 -9.16225,15.1021 -7.31128,11.7685" style="fill:#808080;stroke:black;stroke-width:0.1" />
<polygon points="-16.8371,-9.64857 -20.2216,-11.3076 -18.3662,-14.7527" style="fill:#808080;stroke:black;stroke-width:0.1" />
<polygon points="64.7052,-3.08126 60.9635,-1.35391 63.9907,-5.45337" style="fill:#808080;stroke:black;stroke-width:0.1" />
<polygon points="0.409847,-9.8833 -2.97512,-11.5221 -1.11951,-14.978" style="fill:#808080;stroke:black;stroke-width:0.1" />
<polygon points="58.0578,-8.03096 61.4496,-9.68713 60.3076,-5.5521" style="fill:#808080;stroke:black;stroke-width:0.1" />
<polygon points="33.3704,-15.2562 36.8183,-15.2256 34.9234,-10.7629" style="fill:#808080;stroke:black;stroke-width:0.1" />
<polygon points="43.7128,-15.1105 47.1595,-15.0264 45.3022,-11.5601" style="fill:#808080;stroke:black;stroke-width:0.1" />
<polygon points="-51.5481,4.20162 -47.7054,4.32166 -48.513,8.79324" style="fill:#808080;stroke:black;stroke-width:0.1" />
<polygon points="57.547,-3.65857 60.3076,-5.5521 60.9635,-1.35391" style="fill:#808080;stroke:black;stroke-width:0.1" />
<polygon points="-58.2391,-0.276077 -61.264,-2.29095 -60.3425,-5.4556" style="fill:#808080;stroke:black;stroke-width:0.1" />
<polygon points="-3.45962,9.04469 -7.16894,8.03792 -1.98902,5.36484" style="fill:#808080;stroke:black;stroke-width:0.1" />
<polygon points="4.63564,14.8966 1.18617,14.9477 3.08189,10.4406" style="fill:#808080;stroke:black;stroke-width:0.1" />
<polygon points="-55.2328,5.30762 -52.3056,7.9666 -55.0015,10.4104" style="fill:#808080;stroke:black;stroke-width:0.1" />
<polygon points="-58.2391,-0.276077 -59.1212,4.5495 -61.4087,1.50245" style="fill:#808080;stroke:black;stroke-width:0.1" />
<polygon points="6.7756,9.69469 9.93598,11.5164 8.08505,14.8482" style="fill:#808080;stroke:black;stroke-width:0.1" />
<polygon points="9.93598,11.5164 13.4925,9.88306 11.5344,14.8041" style="fill:#808080;stroke:black;stroke-width:0.1" />
<polygon points="-63.9264,5.53674 -61.4087,1.50245 -59.1212,4.5495" style="fill:#808080;stroke:black;stroke-width:0.1" />
<polygon points="3.08189,10.4406 6.7756,9.69469 4.63564,14.8966" style="fill:#808080;stroke:black;stroke-width:0.1" />
<polygon points="-58.0112,8.13222 -59.6278,11.5164 -61.3852,9.7705" style="fill:#808080;stroke:black;stroke-width:0.1" />
<polygon points="55.2576,-6.14125 58.0578,-8.03096 57.547,-3.65857" style="fill:#808080;stroke:black;stroke-width:0.1" />
<polygon points="20.1264,9.82349 21.8815,14.7128 18.4326,14.7349" style="fill:#808080;stroke:black;stroke-width:0.1" />
<polygon points="25.3302,14.7012 21.8815,14.7128 23.7769,10.2241" style="fill:#808080;stroke:black;stroke-width:0.1" />
<polygon points="64.9251,1.85168 61.2393,2.35595 65.0195,-0.623896" style="fill:#808080;stroke:black;stroke-width:0.1" />
<polygon points="52.406,11.1802 51.9373,14.9287 49.4622,15.0485" style="fill:#808080;stroke:black;stroke-width:0.1" />
<polygon points="40.8254,9.64209 44.647,5.60472 44.4636,10.4145" style="fill:#808080;stroke:black;stroke-width:0.1" />
<polygon points="35.6746,14.7455 32.2268,14.7159 34.0912,9.82686" style="fill:#808080;stroke:black;stroke-width:0.1" />
<polygon points="54.3604,14.4078 52.406,11.1802 55.969,9.93148" style="fill:#808080;stroke:black;stroke-width:0.1" />
<polygon points="23.7769,10.2241 27.4591,9.79906 25.3302,14.7012" style="fill:#808080;stroke:black;stroke-width:0.1" />
<polygon points="61.2393,2.35595 64.9251,1.85168 64.4244,4.27795" style="fill:#808080;stroke:black;stroke-width:0.1" />
<polygon points="16.8271,11.6299 14.9836,14.7658 13.4925,9.88306" style="fill:#808080;stroke:black;stroke-width:0.1" />
<polygon points="60.3076,-5.5521 61.4496,-9.68713 62.8956,-7.67554" style="fill:#808080;stroke:black;stroke-width:0.1" />
<polygon points="58.858,7.46876 58.7896,12.2237 55.969,9.93148" style="fill:#808080;stroke:black;stroke-width:0.1" />
<polygon points="58.7896,12.2237 56.6654,13.4987 55.969,9.93148" style="fill:#808080;stroke:black;stroke-width:0.1" />
<polygon points="48.3936,11.1859 46.0159,14.9442 44.4636,10.4145" style="fill:#808080;stroke:black;stroke-width:0.1" />
<polygon points="52.406,11.1802 54.3604,14.4078 51.9373,14.9287" style="fill:#808080;stroke:black;stroke-width:0.1" />
<polygon points="65.0195,-0.623896 61.2393,2.35595 60.9635,-1.35391" style="fill:#808080;stroke:black;stroke-width:0.1" />
<polygon points="58.7896,12.2237 58.858,7.46876 60.6749,10.6165" style="fill:#808080;stroke:black;stroke-width:0.1" />
<polygon points="-32.1609,-14.7082 -33.8646,-9.53996 -35.6089,-14.7291" style="fill:#808080;stroke:black;stroke-width:0.1" />
<polygon points="-39.0566,-14.7662 -35.6089,-14.7291 -37.5038,-10.2625" style="fill:#808080;stroke:black;stroke-width:0.1" />
<polygon points="58.858,7.46876 55.969,9.93148 55.4027,6.34135" style="fill:#808080;stroke:black;stroke-width:0.1" />
<polygon points="55.4027,6.34135 55.969,9.93148 52.406,11.1802" style="fill:#808080;stroke:black;stroke-width:0.1" />
<polygon points="-55.0015,10.4104 -59.6278,11.5164 -58.0112,8.13222" style="fill:#808080;stroke:black;stroke-width:0.1" />
<polygon points="35.6746,14.7455 37.5247,11.4563 39.1221,14.7928" style="fill:#808080;stroke:black;stroke-width:0.1" />
<polygon points="48.3936,11.1859 52.406,11.1802 49.4622,15.0485" style="fill:#808080;stroke:black;stroke-width:0.1" />
<polygon points="60.8679,5.29395 64.4244,4.27795 63.5313,6.58873" style="fill:#808080;stroke:black;stroke-width:0.1" />
<polygon points="46.0159,14.9442 42.5692,14.8587 44.4636,10.4145" style="fill:#808080;stroke:black;stroke-width:0.1" />
<polygon points="56.1777,-0.322678 60.9635,-1.35391 61.2393,2.35595" style="fill:#808080;stroke:black;stroke-width:0.1" />
<polygon points="60.8679,5.29395 61.2393,2.35595 64.4244,4.27795" style="fill:#808080;stroke:black;stroke-width:0.1" />
<polygon points="58.0798,3.99534 58.858,7.46876 55.4027,6.34135" style="fill:#808080;stroke:black;stroke-width:0.1" />
<polygon points="58.0798,3.99534 56.1777,-0.322678 61.2393,2.35595" style="fill:#808080;stroke:black;stroke-width:0.1" />
<polygon points="60.8679,5.29395 58.0798,3.99534 61.2393,2.35595" style="fill:#808080;stroke:black;stroke-width:0.1" />
<polygon points="56.6654,13.4987 54.3604,14.4078 55.969,9.93148" style="fill:#808080;stroke:black;stroke-width:0.1" />
<polygon points="50.4071,8.6864 48.3936,11.1859 47.0409,8.03992" style="fill:#808080;stroke:black;stroke-width:0.1" />
<polygon points="55.0659,-10.3297 58.0578,-8.03096 55.2576,-6.14125" style="fill:#808080;stroke:black;stroke-width:0.1" />
<polygon points="-58.0112,8.13222 -59.1212,4.5495 -55.2328,5.30762" style="fill:#808080;stroke:black;stroke-width:0.1" />
<polygon points="-24.2683,10.0891 -21.1083,11.9329 -22.9591,15.2541" style="fill:#808080;stroke:black;stroke-width:0.1" />
<polygon points="-6.48911,-9.78006 -2.38424,-8.60644 -6.11752,-6.68506" style="fill:#808080;stroke:black;stroke-width:0.1" />
<polygon points="-18.1255,-1.72174 -14.5308,-2.44401 -15.6178,1.8788" style="fill:#808080;stroke:black;stroke-width:0.1" />
<polygon points="-60.3425,-5.4556 -64.3601,-4.19458 -63.4669,-6.50536" style="fill:#808080;stroke:black;stroke-width:0.1" />
<polygon points="-44.3463,-11.739 -48.0904,-8.75605 -50.4829,-11.5076" style="fill:#808080;stroke:black;stroke-width:0.1" />
<polygon points="-41.1845,-9.89912 -41.3637,-6.14152 -44.4821,-8.17739" style="fill:#808080;stroke:black;stroke-width:0.1" />
<polygon points="48.388,-12.1555 45.3022,-11.5601 47.1595,-15.0264" style="fill:#808080;stroke:black;stroke-width:0.1" />
<polygon points="45.3022,-11.5601 44.8228,-7.6749 40.4068,-10.108" style="fill:#808080;stroke:black;stroke-width:0.1" />
<polygon points="50.7353,-4.78451 52.37,-7.88778 55.2576,-6.14125" style="fill:#808080;stroke:black;stroke-width:0.1" />
<polygon points="45.3022,-11.5601 48.5777,-8.72636 44.8228,-7.6749" style="fill:#808080;stroke:black;stroke-width:0.1" />
<polygon points="-48.3233,12.2215 -45.2373,11.6159 -47.0947,15.0885" style="fill:#808080;stroke:black;stroke-width:0.1" />
<polygon points="-41.5516,7.28098 -41.6316,10.5035 -44.7578,7.72841" style="fill:#808080;stroke:black;stroke-width:0.1" />
<polygon points="-55.2328,5.30762 -51.5481,4.20162 -52.3056,7.9666" style="fill:#808080;stroke:black;stroke-width:0.1" />
<polygon points="-45.2373,11.6159 -48.513,8.79324 -44.7578,7.72841" style="fill:#808080;stroke:black;stroke-width:0.1" />
<polygon points="-44.7578,7.72841 -47.7054,4.32166 -43.6559,3.79314" style="fill:#808080;stroke:black;stroke-width:0.1" />
<polygon points="-29.7335,8.39774 -31.5816,11.894 -32.7741,8.39315" style="fill:#808080;stroke:black;stroke-width:0.1" />
<polygon points="52.6731,0.526198 54.8763,3.04025 50.058,5.50366" style="fill:#808080;stroke:black;stroke-width:0.1" />
<polygon points="48.5777,-8.72636 47.3422,-5.83645 44.8228,-7.6749" style="fill:#808080;stroke:black;stroke-width:0.1" />
<polygon points="40.8254,9.64209 39.1221,14.7928 37.5247,11.4563" style="fill:#808080;stroke:black;stroke-width:0.1" />
<polygon points="50.4071,8.6864 47.0409,8.03992 50.058,5.50366" style="fill:#808080;stroke:black;stroke-width:0.1" />
<polygon points="30.6217,11.587 32.2268,14.7159 28.7786,14.7015" style="fill:#808080;stroke:black;stroke-width:0.1" />
<polygon points="33.3407,1.63364 34.1826,5.6837 31.2206,4.98102" style="fill:#808080;stroke:black;stroke-width:0.1" />
<polygon points="-28.7126,-14.7015 -25.264,-14.708 -27.4382,-9.52809" style="fill:#808080;stroke:black;stroke-width:0.1" />
<polygon points="-33.8646,-9.53996 -30.563,-11.3932 -30.7054,-7.6625" style="fill:#808080;stroke:black;stroke-width:0.1" />
<polygon points="-17.8059,10.0377 -19.5101,15.2266 -21.1083,11.9329" style="fill:#808080;stroke:black;stroke-width:0.1" />
<polygon points="-10.3158,6.24803 -10.4717,9.94886 -13.9821,5.88826" style="fill:#808080;stroke:black;stroke-width:0.1" />
<polygon points="-26.4079,15.2721 -27.9612,10.796 -24.2683,10.0891" style="fill:#808080;stroke:black;stroke-width:0.1" />
<polygon points="-24.2683,10.0891 -24.1123,6.3883 -20.966,8.20212" style="fill:#808080;stroke:black;stroke-width:0.1" />
<polygon points="-7.16894,8.03792 -10.4717,9.94886 -10.3158,6.24803" style="fill:#808080;stroke:black;stroke-width:0.1" />
<polygon points="-1.98902,5.36484 0.744346,4.49346 0.366042,8.08215" style="fill:#808080;stroke:black;stroke-width:0.1" />
<polygon points="-31.5816,11.894 -29.8564,15.2791 -33.3047,15.2735" style="fill:#808080;stroke:black;stroke-width:0.1" />
<polygon points="-27.778,5.99523 -24.1123,6.3883 -24.2683,10.0891" style="fill:#808080;stroke:black;stroke-width:0.1" />
<polygon points="-0.439904,11.7101 1.18617,14.9477 -2.26332,15" style="fill:#808080;stroke:black;stroke-width:0.1" />
<polygon points="6.93153,5.99403 6.7756,9.69469 3.26508,5.63959" style="fill:#808080;stroke:black;stroke-width:0.1" />
<polygon points="15.1585,1.16513 17.003,4.32905 13.5582,6.09238" style="fill:#808080;stroke:black;stroke-width:0.1" />
<polygon points="16.8271,11.6299 18.4326,14.7349 14.9836,14.7658" style="fill:#808080;stroke:black;stroke-width:0.1" />
<polygon points="20.1264,9.82349 18.4326,14.7349 16.8271,11.6299" style="fill:#808080;stroke:black;stroke-width:0.1" />
<polygon points="27.4591,9.79906 23.7769,10.2241 27.6375,6.04713" style="fill:#808080;stroke:black;stroke-width:0.1" />
<polygon points="29.9223,-15.2714 33.3704,-15.2562 31.2313,-10.0934" style="fill:#808080;stroke:black;stroke-width:0.1" />
<polygon points="27.9296,-8.23612 22.9652,-9.95106 24.9818,-12.4472" style="fill:#808080;stroke:black;stroke-width:0.1" />
<polygon points="-41.3637,-6.14152 -37.5038,-10.2625 -37.687,-5.45769" style="fill:#808080;stroke:black;stroke-width:0.1" />
<polygon points="-44.4821,-8.17739 -44.3463,-11.739 -41.1845,-9.89912" style="fill:#808080;stroke:black;stroke-width:0.1" />
<polygon points="-47.7054,4.32166 -44.7578,7.72841 -48.513,8.79324" style="fill:#808080;stroke:black;stroke-width:0.1" />
<polygon points="-46.9678,-4.53844 -49.8647,-5.58722 -48.0904,-8.75605" style="fill:#808080;stroke:black;stroke-width:0.1" />
<polygon points="-40.2004,15.2161 -43.6478,15.1617 -41.6316,10.5035" style="fill:#808080;stroke:black;stroke-width:0.1" />
<polygon points="-35.46,9.50112 -34.9675,12.3108 -38.3632,12.2643" style="fill:#808080;stroke:black;stroke-width:0.1" />
<polygon points="50.058,5.50366 54.8763,3.04025 55.4027,6.34135" style="fill:#808080;stroke:black;stroke-width:0.1" />
<polygon points="56.1777,-0.322678 54.8763,3.04025 52.6731,0.526198" style="fill:#808080;stroke:black;stroke-width:0.1" />
<polygon points="34.0912,9.82686 32.2268,14.7159 30.6217,11.587" style="fill:#808080;stroke:black;stroke-width:0.1" />
<polygon points="40.8254,9.64209 37.5247,11.4563 37.667,7.72398" style="fill:#808080;stroke:black;stroke-width:0.1" />
<polygon points="28.7786,14.7015 27.4591,9.79906 30.6217,11.587" style="fill:#808080;stroke:black;stroke-width:0.1" />
<polygon points="30.7577,8.02365 27.4591,9.79906 27.6375,6.04713" style="fill:#808080;stroke:black;stroke-width:0.1" />
<polygon points="-22.9591,15.2541 -26.4079,15.2721 -24.2683,10.0891" style="fill:#808080;stroke:black;stroke-width:0.1" />
<polygon points="-17.8059,10.0377 -21.1083,11.9329 -20.966,8.20212" style="fill:#808080;stroke:black;stroke-width:0.1" />
<polygon points="-9.16225,15.1021 -12.6116,15.149 -10.4717,9.94886" style="fill:#808080;stroke:black;stroke-width:0.1" />
<polygon points="-1.98902,5.36484 0.366042,8.08215 -3.45962,9.04469" style="fill:#808080;stroke:black;stroke-width:0.1" />
<polygon points="8.08505,14.8482 4.63564,14.8966 6.7756,9.69469" style="fill:#808080;stroke:black;stroke-width:0.1" />
<polygon points="13.5582,6.09238 13.4925,9.88306 10.0783,7.78613" style="fill:#808080;stroke:black;stroke-width:0.1" />
<polygon points="16.9992,-3.72592 19.184,0.851729 15.1585,1.16513" style="fill:#808080;stroke:black;stroke-width:0.1" />
<polygon points="20.2342,6.07187 23.7769,10.2241 20.1264,9.82349" style="fill:#808080;stroke:black;stroke-width:0.1" />
<polygon points="-40.1578,-2.79223 -41.3637,-6.14152 -37.687,-5.45769" style="fill:#808080;stroke:black;stroke-width:0.1" />
<polygon points="-43.9749,-1.84654 -41.3637,-6.14152 -40.1578,-2.79223" style="fill:#808080;stroke:black;stroke-width:0.1" />
<polygon points="-41.3637,-6.14152 -46.9678,-4.53844 -44.4821,-8.17739" style="fill:#808080;stroke:black;stroke-width:0.1" />
<polygon points="-46.9678,-4.53844 -47.7184,-0.216596 -51.7275,-3.10219" style="fill:#808080;stroke:black;stroke-width:0.1" />
<polygon points="-44.7578,7.72841 -41.6316,10.5035 -45.2373,11.6159" style="fill:#808080;stroke:black;stroke-width:0.1" />
<polygon points="-38.2321,8.82907 -38.3632,12.2643 -41.6316,10.5035" style="fill:#808080;stroke:black;stroke-width:0.1" />
<polygon points="50.4071,8.6864 55.4027,6.34135 52.406,11.1802" style="fill:#808080;stroke:black;stroke-width:0.1" />
<polygon points="46.3395,2.88386 44.647,5.60472 41.545,1.10444" style="fill:#808080;stroke:black;stroke-width:0.1" />
<polygon points="56.1777,-0.322678 52.6731,0.526198 53.6953,-2.91159" style="fill:#808080;stroke:black;stroke-width:0.1" />
<polygon points="60.9635,-1.35391 56.1777,-0.322678 57.547,-3.65857" style="fill:#808080;stroke:black;stroke-width:0.1" />
<polygon points="28.7786,14.7015 25.3302,14.7012 27.4591,9.79906" style="fill:#808080;stroke:black;stroke-width:0.1" />
<polygon points="34.0912,9.82686 30.6217,11.587 30.7577,8.02365" style="fill:#808080;stroke:black;stroke-width:0.1" />
<polygon points="14.9836,14.7658 11.5344,14.8041 13.4925,9.88306" style="fill:#808080;stroke:black;stroke-width:0.1" />
<polygon points="20.1264,9.82349 16.8271,11.6299 16.9631,8.06699" style="fill:#808080;stroke:black;stroke-width:0.1" />
<polygon points="27.6375,6.04713 23.7769,10.2241 23.96,5.42329" style="fill:#808080;stroke:black;stroke-width:0.1" />
<polygon points="30.7577,8.02365 30.6217,11.587 27.4591,9.79906" style="fill:#808080;stroke:black;stroke-width:0.1" />
<polygon points="34.0912,9.82686 30.7577,8.02365 34.1826,5.6837" style="fill:#808080;stroke:black;stroke-width:0.1" />
<polygon points="35.6746,14.7455 34.0912,9.82686 37.5247,11.4563" style="fill:#808080;stroke:black;stroke-width:0.1" />
<polygon points="10.0783,7.78613 13.4925,9.88306 9.93598,11.5164" style="fill:#808080;stroke:black;stroke-width:0.1" />
<polygon points="16.9631,8.06699 16.8271,11.6299 13.4925,9.88306" style="fill:#808080;stroke:black;stroke-width:0.1" />
<polygon points="20.1264,9.82349 16.9631,8.06699 20.2342,6.07187" style="fill:#808080;stroke:black;stroke-width:0.1" />
<polygon points="21.8815,14.7128 20.1264,9.82349 23.7769,10.2241" style="fill:#808080;stroke:black;stroke-width:0.1" />
<polygon points="23.96,5.42329 23.194,1.04701 26.3516,2.64242" style="fill:#808080;stroke:black;stroke-width:0.1" />
<polygon points="27.2215,-1.08542 32.2198,-1.57063 29.9414,2.24287" style="fill:#808080;stroke:black;stroke-width:0.1" />
<polygon points="17.003,4.32905 20.2342,6.07187 16.9631,8.06699" style="fill:#808080;stroke:black;stroke-width:0.1" />
<polygon points="20.9846,3.15171 19.184,0.851729 23.194,1.04701" style="fill:#808080;stroke:black;stroke-width:0.1" />
<polygon points="62.8956,-7.67554 63.9907,-5.45337 60.3076,-5.5521" style="fill:#808080;stroke:black;stroke-width:0.1" />
<polygon points="60.9635,-1.35391 60.3076,-5.5521 63.9907,-5.45337" style="fill:#808080;stroke:black;stroke-width:0.1" />
<polygon points="57.547,-3.65857 56.1777,-0.322678 53.6953,-2.91159" style="fill:#808080;stroke:black;stroke-width:0.1" />
<polygon points="55.0659,-10.3297 55.2576,-6.14125 52.37,-7.88778" style="fill:#808080;stroke:black;stroke-width:0.1" />
<polygon points="47.8686,-2.75665 50.7353,-4.78451 52.6731,0.526198" style="fill:#808080;stroke:black;stroke-width:0.1" />
<polygon points="55.2576,-6.14125 53.6953,-2.91159 50.7353,-4.78451" style="fill:#808080;stroke:black;stroke-width:0.1" />
<polygon points="47.8686,-2.75665 48.8651,0.923647 45.1755,-0.0596276" style="fill:#808080;stroke:black;stroke-width:0.1" />
<polygon points="38.1711,4.6747 41.545,1.10444 40.952,5.93718" style="fill:#808080;stroke:black;stroke-width:0.1" />
<polygon points="-58.2391,-0.276077 -54.4304,1.27478 -59.1212,4.5495" style="fill:#808080;stroke:black;stroke-width:0.1" />
<polygon points="-54.4304,1.27478 -51.5481,4.20162 -55.2328,5.30762" style="fill:#808080;stroke:black;stroke-width:0.1" />
<polygon points="50.6059,-14.9234 48.388,-12.1555 47.1595,-15.0264" style="fill:#808080;stroke:black;stroke-width:0.1" />
<polygon points="48.5777,-8.72636 48.388,-12.1555 51.4239,-11.3894" style="fill:#808080;stroke:black;stroke-width:0.1" />
<polygon points="40.4068,-10.108 44.8228,-7.6749 41.6913,-7.26232" style="fill:#808080;stroke:black;stroke-width:0.1" />
<polygon points="36.8183,-15.2256 37.9163,-12.1738 34.9234,-10.7629" style="fill:#808080;stroke:black;stroke-width:0.1" />
<polygon points="-50.5413,14.9947 -48.3233,12.2215 -47.0947,15.0885" style="fill:#808080;stroke:black;stroke-width:0.1" />
<polygon points="-48.513,8.79324 -48.3233,12.2215 -51.3593,11.4638" style="fill:#808080;stroke:black;stroke-width:0.1" />
<polygon points="-23.735,-9.5943 -19.6308,-8.38709 -23.8346,-6.11403" style="fill:#808080;stroke:black;stroke-width:0.1" />
<polygon points="-30.7054,-7.6625 -30.563,-11.3932 -27.4382,-9.52809" style="fill:#808080;stroke:black;stroke-width:0.1" />
<polygon points="-21.2699,5.20615 -20.966,8.20212 -24.1123,6.3883" style="fill:#808080;stroke:black;stroke-width:0.1" />
<polygon points="-33.9911,-5.83725 -37.687,-5.45769 -33.8646,-9.53996" style="fill:#808080;stroke:black;stroke-width:0.1" />
<polygon points="-23.8346,-6.11403 -27.4382,-9.52809 -23.735,-9.5943" style="fill:#808080;stroke:black;stroke-width:0.1" />
<polygon points="-31.5234,-2.42618 -27.8405,-6.34075 -26.3314,-3.58175" style="fill:#808080;stroke:black;stroke-width:0.1" />
<polygon points="-27.7189,-0.586884 -28.5217,2.64335 -30.7981,0.586134" style="fill:#808080;stroke:black;stroke-width:0.1" />
<polygon points="-31.4331,4.637 -27.778,5.99523 -29.7335,8.39774" style="fill:#808080;stroke:black;stroke-width:0.1" />
<polygon points="-33.8646,-9.53996 -30.7054,-7.6625 -33.9911,-5.83725" style="fill:#808080;stroke:black;stroke-width:0.1" />
<polygon points="-35.6089,-14.7291 -33.8646,-9.53996 -37.5038,-10.2625" style="fill:#808080;stroke:black;stroke-width:0.1" />
<polygon points="34.7403,-5.96554 31.2313,-10.0934 34.9234,-10.7629" style="fill:#808080;stroke:black;stroke-width:0.1" />
<polygon points="27.9296,-8.23612 28.0719,-11.9656 31.2313,-10.0934" style="fill:#808080;stroke:black;stroke-width:0.1" />
<polygon points="-51.5481,4.20162 -48.513,8.79324 -52.3056,7.9666" style="fill:#808080;stroke:black;stroke-width:0.1" />
<polygon points="-47.7184,-0.216596 -43.9749,-1.84654 -44.965,1.06215" style="fill:#808080;stroke:black;stroke-width:0.1" />
<polygon points="40.8254,9.64209 37.667,7.72398 40.952,5.93718" style="fill:#808080;stroke:black;stroke-width:0.1" />
<polygon points="42.5692,14.8587 40.8254,9.64209 44.4636,10.4145" style="fill:#808080;stroke:black;stroke-width:0.1" />
<polygon points="-27.778,5.99523 -24.2683,10.0891 -27.9612,10.796" style="fill:#808080;stroke:black;stroke-width:0.1" />
<polygon points="-20.966,8.20212 -21.1083,11.9329 -24.2683,10.0891" style="fill:#808080;stroke:black;stroke-width:0.1" />
<polygon points="-17.8059,10.0377 -20.966,8.20212 -17.6215,5.51867" style="fill:#808080;stroke:black;stroke-width:0.1" />
<polygon points="-16.0609,15.191 -17.8059,10.0377 -14.1653,10.6895" style="fill:#808080;stroke:black;stroke-width:0.1" />
<polygon points="-13.9821,5.88826 -10.4717,9.94886 -14.1653,10.6895" style="fill:#808080;stroke:black;stroke-width:0.1" />
<polygon points="-7.16894,8.03792 -7.31128,11.7685 -10.4717,9.94886" style="fill:#808080;stroke:black;stroke-width:0.1" />
<polygon points="3.26508,5.63959 6.7756,9.69469 3.08189,10.4406" style="fill:#808080;stroke:black;stroke-width:0.1" />
<polygon points="10.0783,7.78613 9.93598,11.5164 6.7756,9.69469" style="fill:#808080;stroke:black;stroke-width:0.1" />
<polygon points="-40.1578,-2.79223 -37.687,-5.45769 -35.9305,-1.37128" style="fill:#808080;stroke:black;stroke-width:0.1" />
<polygon points="-39.4849,4.75429 -41.5516,7.28098 -43.6559,3.79314" style="fill:#808080;stroke:black;stroke-width:0.1" />
<polygon points="-51.0187,0.805352 -47.7184,-0.216596 -47.7054,4.32166" style="fill:#808080;stroke:black;stroke-width:0.1" />
<polygon points="-57.1569,-9.24189 -53.8369,-5.59342 -57.0831,-5.94603" style="fill:#808080;stroke:black;stroke-width:0.1" />
<polygon points="17.003,4.32905 19.184,0.851729 20.9846,3.15171" style="fill:#808080;stroke:black;stroke-width:0.1" />
<polygon points="31.0754,-6.39473 27.9296,-8.23612 31.2313,-10.0934" style="fill:#808080;stroke:black;stroke-width:0.1" />
<polygon points="13.5582,6.09238 10.7896,3.11557 15.1585,1.16513" style="fill:#808080;stroke:black;stroke-width:0.1" />
<polygon points="6.93153,5.99403 10.0783,7.78613 6.7756,9.69469" style="fill:#808080;stroke:black;stroke-width:0.1" />
<polygon points="50.7353,-4.78451 48.5777,-8.72636 52.37,-7.88778" style="fill:#808080;stroke:black;stroke-width:0.1" />
<polygon points="47.3422,-5.83645 47.8686,-2.75665 43.9992,-3.63909" style="fill:#808080;stroke:black;stroke-width:0.1" />
<polygon points="-30.7054,-7.6625 -31.5234,-2.42618 -33.9911,-5.83725" style="fill:#808080;stroke:black;stroke-width:0.1" />
<polygon points="-35.9305,-1.37128 -33.9911,-5.83725 -31.5234,-2.42618" style="fill:#808080;stroke:black;stroke-width:0.1" />
<polygon points="32.2198,-1.57063 31.0754,-6.39473 34.7403,-5.96554" style="fill:#808080;stroke:black;stroke-width:0.1" />
<polygon points="27.8704,-4.64288 31.0754,-6.39473 32.2198,-1.57063" style="fill:#808080;stroke:black;stroke-width:0.1" />
<polygon points="41.545,1.10444 44.647,5.60472 40.952,5.93718" style="fill:#808080;stroke:black;stroke-width:0.1" />
<polygon points="26.3516,2.64242 27.6375,6.04713 23.96,5.42329" style="fill:#808080;stroke:black;stroke-width:0.1" />
<polygon points="27.8704,-4.64288 27.2215,-1.08542 24.3842,-3.31595" style="fill:#808080;stroke:black;stroke-width:0.1" />
<polygon points="27.9296,-8.23612 31.0754,-6.39473 27.8704,-4.64288" style="fill:#808080;stroke:black;stroke-width:0.1" />
<polygon points="23.194,1.04701 24.3842,-3.31595 27.2215,-1.08542" style="fill:#808080;stroke:black;stroke-width:0.1" />
<polygon points="16.9992,-3.72592 17.1349,-6.9269 20.76,-3.82267" style="fill:#808080;stroke:black;stroke-width:0.1" />
<polygon points="26.3516,2.64242 27.2215,-1.08542 29.9414,2.24287" style="fill:#808080;stroke:black;stroke-width:0.1" />
<polygon points="24.3842,-3.31595 20.76,-3.82267 23.1042,-6.48944" style="fill:#808080;stroke:black;stroke-width:0.1" />
<polygon points="20.9846,3.15171 23.96,5.42329 20.2342,6.07187" style="fill:#808080;stroke:black;stroke-width:0.1" />
<polygon points="20.76,-3.82267 24.3842,-3.31595 23.194,1.04701" style="fill:#808080;stroke:black;stroke-width:0.1" />
<polygon points="-59.1212,4.5495 -54.4304,1.27478 -55.2328,5.30762" style="fill:#808080;stroke:black;stroke-width:0.1" />
<polygon points="-47.7054,4.32166 -51.5481,4.20162 -51.0187,0.805352" style="fill:#808080;stroke:black;stroke-width:0.1" />
<polygon points="37.667,7.72398 34.1826,5.6837 38.1711,4.6747" style="fill:#808080;stroke:black;stroke-width:0.1" />
<polygon points="40.952,5.93718 37.667,7.72398 38.1711,4.6747" style="fill:#808080;stroke:black;stroke-width:0.1" />
<polygon points="34.7403,-5.96554 36.3803,-2.16895 32.2198,-1.57063" style="fill:#808080;stroke:black;stroke-width:0.1" />
<polygon points="40.1298,-4.49973 34.7403,-5.96554 37.3604,-8.33776" style="fill:#808080;stroke:black;stroke-width:0.1" />
<polygon points="37.667,7.72398 34.0912,9.82686 34.1826,5.6837" style="fill:#808080;stroke:black;stroke-width:0.1" />
<polygon points="41.545,1.10444 38.1711,4.6747 36.7461,1.98343" style="fill:#808080;stroke:black;stroke-width:0.1" />
<polygon points="27.6375,6.04713 29.9414,2.24287 31.2206,4.98102" style="fill:#808080;stroke:black;stroke-width:0.1" />
<polygon points="36.7461,1.98343 38.1711,4.6747 34.1826,5.6837" style="fill:#808080;stroke:black;stroke-width:0.1" />
<polygon points="36.3803,-2.16895 36.7461,1.98343 33.3407,1.63364" style="fill:#808080;stroke:black;stroke-width:0.1" />
<polygon points="41.545,1.10444 41.5366,-1.88809 45.1755,-0.0596276" style="fill:#808080;stroke:black;stroke-width:0.1" />
<polygon points="-27.778,5.99523 -25.232,1.40659 -24.1123,6.3883" style="fill:#808080;stroke:black;stroke-width:0.1" />
<polygon points="-20.966,8.20212 -21.2699,5.20615 -17.6215,5.51867" style="fill:#808080;stroke:black;stroke-width:0.1" />
<polygon points="-27.778,5.99523 -31.4331,4.637 -28.5217,2.64335" style="fill:#808080;stroke:black;stroke-width:0.1" />
<polygon points="-26.3314,-3.58175 -23.8346,-6.11403 -22.6583,-1.90063" style="fill:#808080;stroke:black;stroke-width:0.1" />
<polygon points="-25.232,1.40659 -27.7189,-0.586884 -22.6583,-1.90063" style="fill:#808080;stroke:black;stroke-width:0.1" />
<polygon points="-16.2652,-5.54561 -18.1255,-1.72174 -20.4449,-5.45496" style="fill:#808080;stroke:black;stroke-width:0.1" />
<polygon points="-22.2167,1.06226 -24.1123,6.3883 -25.232,1.40659" style="fill:#808080;stroke:black;stroke-width:0.1" />
<polygon points="-17.6215,5.51867 -21.2699,5.20615 -19.6664,2.5641" style="fill:#808080;stroke:black;stroke-width:0.1" />
<polygon points="-17.6215,5.51867 -19.6664,2.5641 -15.6178,1.8788" style="fill:#808080;stroke:black;stroke-width:0.1" />
<polygon points="-17.6215,5.51867 -13.9821,5.88826 -17.8059,10.0377" style="fill:#808080;stroke:black;stroke-width:0.1" />
<polygon points="-11.5753,2.21574 -10.3158,6.24803 -13.9821,5.88826" style="fill:#808080;stroke:black;stroke-width:0.1" />
<polygon points="-7.14994,4.51096 -11.5753,2.21574 -8.5385,0.345159" style="fill:#808080;stroke:black;stroke-width:0.1" />
<polygon points="-13.9821,5.88826 -15.6178,1.8788 -11.5753,2.21574" style="fill:#808080;stroke:black;stroke-width:0.1" />
<polygon points="-6.11752,-6.68506 -10.3384,-6.79158 -6.48911,-9.78006" style="fill:#808080;stroke:black;stroke-width:0.1" />
<polygon points="-8.5385,0.345159 -6.96654,-3.62035 -3.74287,-2.0042" style="fill:#808080;stroke:black;stroke-width:0.1" />
<polygon points="1.04163,1.67337 5.67193,1.96269 3.26508,5.63959" style="fill:#808080;stroke:black;stroke-width:0.1" />
<polygon points="-13.9821,5.88826 -17.6215,5.51867 -15.6178,1.8788" style="fill:#808080;stroke:black;stroke-width:0.1" />
<polygon points="-8.5385,0.345159 -11.5753,2.21574 -10.9396,-2.05511" style="fill:#808080;stroke:black;stroke-width:0.1" />
<polygon points="-11.5753,2.21574 -7.14994,4.51096 -10.3158,6.24803" style="fill:#808080;stroke:black;stroke-width:0.1" />
<polygon points="-2.04073,0.705839 1.12205,-3.28704 1.04163,1.67337" style="fill:#808080;stroke:black;stroke-width:0.1" />
<polygon points="-18.1255,-1.72174 -15.6178,1.8788 -19.6664,2.5641" style="fill:#808080;stroke:black;stroke-width:0.1" />
<polygon points="-11.5753,2.21574 -15.6178,1.8788 -14.5308,-2.44401" style="fill:#808080;stroke:black;stroke-width:0.1" />
<polygon points="0.366042,8.08215 3.26508,5.63959 3.08189,10.4406" style="fill:#808080;stroke:black;stroke-width:0.1" />
<polygon points="-7.16894,8.03792 -7.14994,4.51096 -1.98902,5.36484" style="fill:#808080;stroke:black;stroke-width:0.1" />
<polygon points="6.93153,5.99403 3.26508,5.63959 5.67193,1.96269" style="fill:#808080;stroke:black;stroke-width:0.1" />
<polygon points="10.0783,7.78613 6.93153,5.99403 10.7896,3.11557" style="fill:#808080;stroke:black;stroke-width:0.1" />
<polygon points="-2.04073,0.705839 -1.98902,5.36484 -5.28014,1.41926" style="fill:#808080;stroke:black;stroke-width:0.1" />
<polygon points="11.1534,-6.95442 6.83862,-7.08259 10.7581,-10.0308" style="fill:#808080;stroke:black;stroke-width:0.1" />
<polygon points="5.67193,1.96269 10.7896,3.11557 6.93153,5.99403" style="fill:#808080;stroke:black;stroke-width:0.1" />
<polygon points="10.7896,3.11557 5.67193,1.96269 8.89741,0.11" style="fill:#808080;stroke:black;stroke-width:0.1" />
<polygon points="1.04163,1.67337 3.26508,5.63959 0.744346,4.49346" style="fill:#808080;stroke:black;stroke-width:0.1" />
<polygon points="5.67193,1.96269 6.30771,-2.30824 8.89741,0.11" style="fill:#808080;stroke:black;stroke-width:0.1" />
<polygon points="-41.3637,-6.14152 -43.9749,-1.84654 -46.9678,-4.53844" style="fill:#808080;stroke:black;stroke-width:0.1" />
<polygon points="-44.965,1.06215 -40.9001,0.732402 -43.6559,3.79314" style="fill:#808080;stroke:black;stroke-width:0.1" />
<polygon points="-37.687,-5.45769 -33.9911,-5.83725 -35.9305,-1.37128" style="fill:#808080;stroke:black;stroke-width:0.1" />
<polygon points="-43.9749,-1.84654 -40.1578,-2.79223 -40.9001,0.732402" style="fill:#808080;stroke:black;stroke-width:0.1" />
<polygon points="-32.7741,8.39315 -35.3588,5.21707 -31.4331,4.637" style="fill:#808080;stroke:black;stroke-width:0.1" />
<polygon points="-40.1578,-2.79223 -35.9305,-1.37128 -37.5802,1.76508" style="fill:#808080;stroke:black;stroke-width:0.1" />
<polygon points="13.4925,9.88306 13.5582,6.09238 16.9631,8.06699" style="fill:#808080;stroke:black;stroke-width:0.1" />
<polygon points="17.003,4.32905 15.1585,1.16513 19.184,0.851729" style="fill:#808080;stroke:black;stroke-width:0.1" />
<polygon points="-55.2211,-2.23548 -54.4304,1.27478 -58.2391,-0.276077" style="fill:#808080;stroke:black;stroke-width:0.1" />
<polygon points="-51.0187,0.805352 -51.7275,-3.10219 -47.7184,-0.216596" style="fill:#808080;stroke:black;stroke-width:0.1" />
<polygon points="-6.96654,-3.62035 -8.5385,0.345159 -10.9396,-2.05511" style="fill:#808080;stroke:black;stroke-width:0.1" />
<polygon points="-7.14994,4.51096 -8.5385,0.345159 -5.28014,1.41926" style="fill:#808080;stroke:black;stroke-width:0.1" />
<polygon points="-6.96654,-3.62035 -10.9396,-2.05511 -10.3384,-6.79158" style="fill:#808080;stroke:black;stroke-width:0.1" />
<polygon points="-6.96654,-3.62035 -3.19842,-5.66958 -3.74287,-2.0042" style="fill:#808080;stroke:black;stroke-width:0.1" />
<polygon points="-18.1255,-1.72174 -22.2167,1.06226 -22.6583,-1.90063" style="fill:#808080;stroke:black;stroke-width:0.1" />
<polygon points="-19.6308,-8.38709 -16.2652,-5.54561 -20.4449,-5.45496" style="fill:#808080;stroke:black;stroke-width:0.1" />
<polygon points="-5.28014,1.41926 -8.5385,0.345159 -3.74287,-2.0042" style="fill:#808080;stroke:black;stroke-width:0.1" />
<polygon points="5.67193,1.96269 1.04163,1.67337 3.2564,-0.88696" style="fill:#808080;stroke:black;stroke-width:0.1" />
<polygon points="6.30771,-2.30824 10.2615,-3.91719 8.89741,0.11" style="fill:#808080;stroke:black;stroke-width:0.1" />
<polygon points="10.2615,-3.91719 13.5121,-2.15052 8.89741,0.11" style="fill:#808080;stroke:black;stroke-width:0.1" />
<polygon points="10.2615,-3.91719 6.30771,-2.30824 6.83862,-7.08259" style="fill:#808080;stroke:black;stroke-width:0.1" />
<polygon points="13.5121,-2.15052 10.2615,-3.91719 14.0486,-5.91065" style="fill:#808080;stroke:black;stroke-width:0.1" />
<polygon points="10.7896,3.11557 13.5582,6.09238 10.0783,7.78613" style="fill:#808080;stroke:black;stroke-width:0.1" />
<polygon points="16.9631,8.06699 13.5582,6.09238 17.003,4.32905" style="fill:#808080;stroke:black;stroke-width:0.1" />
<polygon points="16.9992,-3.72592 15.1585,1.16513 13.5121,-2.15052" style="fill:#808080;stroke:black;stroke-width:0.1" />
<polygon points="20.76,-3.82267 23.194,1.04701 19.184,0.851729" style="fill:#808080;stroke:black;stroke-width:0.1" />
<polygon points="-58.2391,-0.276077 -57.0831,-5.94603 -55.2211,-2.23548" style="fill:#808080;stroke:black;stroke-width:0.1" />
<polygon points="-53.8369,-5.59342 -55.2211,-2.23548 -57.0831,-5.94603" style="fill:#808080;stroke:black;stroke-width:0.1" />
<polygon points="-51.5481,4.20162 -54.4304,1.27478 -51.0187,0.805352" style="fill:#808080;stroke:black;stroke-width:0.1" />
<polygon points="-51.7275,-3.10219 -51.0187,0.805352 -54.4304,1.27478" style="fill:#808080;stroke:black;stroke-width:0.1" />
<polygon points="-14.5308,-2.44401 -16.2652,-5.54561 -13.6228,-8.14464" style="fill:#808080;stroke:black;stroke-width:0.1" />
<polygon points="-13.3111,-11.6977 -10.0122,-10.3961 -13.6228,-8.14464" style="fill:#808080;stroke:black;stroke-width:0.1" />
<polygon points="-3.19842,-5.66958 -6.96654,-3.62035 -6.11752,-6.68506" style="fill:#808080;stroke:black;stroke-width:0.1" />
<polygon points="-10.3384,-6.79158 -6.11752,-6.68506 -6.96654,-3.62035" style="fill:#808080;stroke:black;stroke-width:0.1" />
<polygon points="1.12205,-3.28704 -3.74287,-2.0042 -3.19842,-5.66958" style="fill:#808080;stroke:black;stroke-width:0.1" />
<polygon points="-2.04073,0.705839 -3.74287,-2.0042 1.12205,-3.28704" style="fill:#808080;stroke:black;stroke-width:0.1" />
<polygon points="-2.04073,0.705839 1.04163,1.67337 0.744346,4.49346" style="fill:#808080;stroke:black;stroke-width:0.1" />
<polygon points="-5.28014,1.41926 -3.74287,-2.0042 -2.04073,0.705839" style="fill:#808080;stroke:black;stroke-width:0.1" />
<polygon points="0.144976,-6.48592 1.12205,-3.28704 -3.19842,-5.66958" style="fill:#808080;stroke:black;stroke-width:0.1" />
<polygon points="3.2564,-0.88696 1.12205,-3.28704 4.20342,-4.83472" style="fill:#808080;stroke:black;stroke-width:0.1" />
<polygon points="4.20342,-4.83472 6.83862,-7.08259 6.30771,-2.30824" style="fill:#808080;stroke:black;stroke-width:0.1" />
<polygon points="3.93005,-11.7887 7.26498,-10.6531 3.44333,-8.10613" style="fill:#808080;stroke:black;stroke-width:0.1" />
<polygon points="14.0486,-5.91065 10.2615,-3.91719 11.1534,-6.95442" style="fill:#808080;stroke:black;stroke-width:0.1" />
<polygon points="6.83862,-7.08259 11.1534,-6.95442 10.2615,-3.91719" style="fill:#808080;stroke:black;stroke-width:0.1" />
<polygon points="16.9992,-3.72592 13.5121,-2.15052 14.0486,-5.91065" style="fill:#808080;stroke:black;stroke-width:0.1" />
<polygon points="13.5121,-2.15052 15.1585,1.16513 10.7896,3.11557" style="fill:#808080;stroke:black;stroke-width:0.1" />
<polygon points="23.96,5.42329 20.9846,3.15171 23.194,1.04701" style="fill:#808080;stroke:black;stroke-width:0.1" />
<polygon points="17.003,4.32905 20.9846,3.15171 20.2342,6.07187" style="fill:#808080;stroke:black;stroke-width:0.1" />
<polygon points="17.1349,-6.9269 16.9992,-3.72592 14.0486,-5.91065" style="fill:#808080;stroke:black;stroke-width:0.1" />
<polygon points="19.184,0.851729 16.9992,-3.72592 20.76,-3.82267" style="fill:#808080;stroke:black;stroke-width:0.1" />
<polygon points="14.8627,-8.84444 17.1349,-6.9269 14.0486,-5.91065" style="fill:#808080;stroke:black;stroke-width:0.1" />
<polygon points="20.4616,-12.0599 20.2707,-7.98874 17.6565,-10.1062" style="fill:#808080;stroke:black;stroke-width:0.1" />
<polygon points="-57.0831,-5.94603 -60.3425,-5.4556 -57.1569,-9.24189" style="fill:#808080;stroke:black;stroke-width:0.1" />
<polygon points="-56.601,-13.4191 -57.1569,-9.24189 -58.7252,-12.1409" style="fill:#808080;stroke:black;stroke-width:0.1" />
<polygon points="-62.2056,-8.63761 -60.3425,-5.4556 -63.4669,-6.50536" style="fill:#808080;stroke:black;stroke-width:0.1" />
<polygon points="-58.2391,-0.276077 -60.3425,-5.4556 -57.0831,-5.94603" style="fill:#808080;stroke:black;stroke-width:0.1" />
<polygon points="62.27,8.72098 60.8679,5.29395 63.5313,6.58873" style="fill:#808080;stroke:black;stroke-width:0.1" />
<polygon points="58.0798,3.99534 60.8679,5.29395 58.858,7.46876" style="fill:#808080;stroke:black;stroke-width:0.1" />
<polygon points="46.0159,14.9442 48.3936,11.1859 49.4622,15.0485" style="fill:#808080;stroke:black;stroke-width:0.1" />
<polygon points="44.4636,10.4145 44.647,5.60472 47.0409,8.03992" style="fill:#808080;stroke:black;stroke-width:0.1" />
<polygon points="55.4027,6.34135 50.4071,8.6864 50.058,5.50366" style="fill:#808080;stroke:black;stroke-width:0.1" />
<polygon points="52.406,11.1802 48.3936,11.1859 50.4071,8.6864" style="fill:#808080;stroke:black;stroke-width:0.1" />
<polygon points="44.4636,10.4145 47.0409,8.03992 48.3936,11.1859" style="fill:#808080;stroke:black;stroke-width:0.1" />
<polygon points="47.0409,8.03992 44.647,5.60472 46.3395,2.88386" style="fill:#808080;stroke:black;stroke-width:0.1" />
<polygon points="-38.2321,8.82907 -39.4849,4.75429 -35.3588,5.21707" style="fill:#808080;stroke:black;stroke-width:0.1" />
<polygon points="-27.778,5.99523 -27.9612,10.796 -29.7335,8.39774" style="fill:#808080;stroke:black;stroke-width:0.1" />
<polygon points="52.6731,0.526198 50.7353,-4.78451 53.6953,-2.91159" style="fill:#808080;stroke:black;stroke-width:0.1" />
<polygon points="47.3422,-5.83645 50.7353,-4.78451 47.8686,-2.75665" style="fill:#808080;stroke:black;stroke-width:0.1" />
<polygon points="44.8228,-7.6749 47.3422,-5.83645 43.9992,-3.63909" style="fill:#808080;stroke:black;stroke-width:0.1" />
<polygon points="38.8259,-0.34912 36.3803,-2.16895 40.1298,-4.49973" style="fill:#808080;stroke:black;stroke-width:0.1" />
<polygon points="45.1755,-0.0596276 43.9992,-3.63909 47.8686,-2.75665" style="fill:#808080;stroke:black;stroke-width:0.1" />
<polygon points="41.5366,-1.88809 43.9992,-3.63909 45.1755,-0.0596276" style="fill:#808080;stroke:black;stroke-width:0.1" />
<polygon points="47.8686,-2.75665 52.6731,0.526198 48.8651,0.923647" style="fill:#808080;stroke:black;stroke-width:0.1" />
<polygon points="41.545,1.10444 45.1755,-0.0596276 46.3395,2.88386" style="fill:#808080;stroke:black;stroke-width:0.1" />
<polygon points="38.8259,-0.34912 41.545,1.10444 36.7461,1.98343" style="fill:#808080;stroke:black;stroke-width:0.1" />
<polygon points="40.1298,-4.49973 43.9992,-3.63909 41.5366,-1.88809" style="fill:#808080;stroke:black;stroke-width:0.1" />
<polygon points="52.6731,0.526198 50.058,5.50366 48.8651,0.923647" style="fill:#808080;stroke:black;stroke-width:0.1" />
<polygon points="50.058,5.50366 47.0409,8.03992 46.3395,2.88386" style="fill:#808080;stroke:black;stroke-width:0.1" />
<polygon points="45.1755,-0.0596276 48.8651,0.923647 46.3395,2.88386" style="fill:#808080;stroke:black;stroke-width:0.1" />
<polygon points="50.058,5.50366 46.3395,2.88386 48.8651,0.923647" style="fill:#808080;stroke:black;stroke-width:0.1" />
<polygon points="37.9163,-12.1738 37.3604,-8.33776 34.9234,-10.7629" style="fill:#808080;stroke:black;stroke-width:0.1" />
<polygon points="37.3604,-8.33776 40.4068,-10.108 41.6913,-7.26232" style="fill:#808080;stroke:black;stroke-width:0.1" />
<polygon points="40.2657,-15.177 37.9163,-12.1738 36.8183,-15.2256" style="fill:#808080;stroke:black;stroke-width:0.1" />
<polygon points="37.3604,-8.33776 37.9163,-12.1738 40.4068,-10.108" style="fill:#808080;stroke:black;stroke-width:0.1" />
<polygon points="-44.965,1.06215 -47.7054,4.32166 -47.7184,-0.216596" style="fill:#808080;stroke:black;stroke-width:0.1" />
<polygon points="-43.6559,3.79314 -40.9001,0.732402 -39.4849,4.75429" style="fill:#808080;stroke:black;stroke-width:0.1" />
<polygon points="-40.9001,0.732402 -44.965,1.06215 -43.9749,-1.84654" style="fill:#808080;stroke:black;stroke-width:0.1" />
<polygon points="-47.7054,4.32166 -44.965,1.06215 -43.6559,3.79314" style="fill:#808080;stroke:black;stroke-width:0.1" />
<polygon points="-37.5802,1.76508 -40.9001,0.732402 -40.1578,-2.79223" style="fill:#808080;stroke:black;stroke-width:0.1" />
<polygon points="-39.4849,4.75429 -40.9001,0.732402 -37.5802,1.76508" style="fill:#808080;stroke:black;stroke-width:0.1" />
<polygon points="-43.6559,3.79314 -41.5516,7.28098 -44.7578,7.72841" style="fill:#808080;stroke:black;stroke-width:0.1" />
<polygon points="-38.2321,8.82907 -41.5516,7.28098 -39.4849,4.75429" style="fill:#808080;stroke:black;stroke-width:0.1" />
<polygon points="-30.7981,0.586134 -33.7613,1.69659 -31.5234,-2.42618" style="fill:#808080;stroke:black;stroke-width:0.1" />
<polygon points="-35.3588,5.21707 -32.7741,8.39315 -35.46,9.50112" style="fill:#808080;stroke:black;stroke-width:0.1" />
<polygon points="-39.4849,4.75429 -37.5802,1.76508 -35.3588,5.21707" style="fill:#808080;stroke:black;stroke-width:0.1" />
<polygon points="-37.5802,1.76508 -35.9305,-1.37128 -33.7613,1.69659" style="fill:#808080;stroke:black;stroke-width:0.1" />
<polygon points="-35.3588,5.21707 -37.5802,1.76508 -33.7613,1.69659" style="fill:#808080;stroke:black;stroke-width:0.1" />
<polygon points="-27.778,5.99523 -28.5217,2.64335 -25.232,1.40659" style="fill:#808080;stroke:black;stroke-width:0.1" />
<polygon points="-31.5234,-2.42618 -33.7613,1.69659 -35.9305,-1.37128" style="fill:#808080;stroke:black;stroke-width:0.1" />
<polygon points="-35.3588,5.21707 -33.7613,1.69659 -31.4331,4.637" style="fill:#808080;stroke:black;stroke-width:0.1" />
<polygon points="-30.7981,0.586134 -31.4331,4.637 -33.7613,1.69659" style="fill:#808080;stroke:black;stroke-width:0.1" />
<polygon points="-26.3314,-3.58175 -22.6583,-1.90063 -27.7189,-0.586884" style="fill:#808080;stroke:black;stroke-width:0.1" />
<polygon points="-48.0904,-8.75605 -49.8647,-5.58722 -51.6938,-8.06936" style="fill:#808080;stroke:black;stroke-width:0.1" />
<polygon points="-46.9678,-4.53844 -51.7275,-3.10219 -49.8647,-5.58722" style="fill:#808080;stroke:black;stroke-width:0.1" />
<polygon points="-49.8647,-5.58722 -53.8369,-5.59342 -51.6938,-8.06936" style="fill:#808080;stroke:black;stroke-width:0.1" />
<polygon points="-55.2211,-2.23548 -53.8369,-5.59342 -51.7275,-3.10219" style="fill:#808080;stroke:black;stroke-width:0.1" />
<polygon points="33.3407,1.63364 29.9414,2.24287 32.2198,-1.57063" style="fill:#808080;stroke:black;stroke-width:0.1" />
<polygon points="30.7577,8.02365 31.2206,4.98102 34.1826,5.6837" style="fill:#808080;stroke:black;stroke-width:0.1" />
<polygon points="36.3803,-2.16895 33.3407,1.63364 32.2198,-1.57063" style="fill:#808080;stroke:black;stroke-width:0.1" />
<polygon points="34.1826,5.6837 33.3407,1.63364 36.7461,1.98343" style="fill:#808080;stroke:black;stroke-width:0.1" />
<polygon points="27.6375,6.04713 31.2206,4.98102 30.7577,8.02365" style="fill:#808080;stroke:black;stroke-width:0.1" />
<polygon points="33.3407,1.63364 31.2206,4.98102 29.9414,2.24287" style="fill:#808080;stroke:black;stroke-width:0.1" />
<polygon points="34.7403,-5.96554 40.1298,-4.49973 36.3803,-2.16895" style="fill:#808080;stroke:black;stroke-width:0.1" />
<polygon points="38.8259,-0.34912 40.1298,-4.49973 41.5366,-1.88809" style="fill:#808080;stroke:black;stroke-width:0.1" />
<polygon points="41.545,1.10444 38.8259,-0.34912 41.5366,-1.88809" style="fill:#808080;stroke:black;stroke-width:0.1" />
<polygon points="36.7461,1.98343 36.3803,-2.16895 38.8259,-0.34912" style="fill:#808080;stroke:black;stroke-width:0.1" />
<polygon points="-20.4449,-5.45496 -18.1255,-1.72174 -22.6583,-1.90063" style="fill:#808080;stroke:black;stroke-width:0.1" />
<polygon points="-22.2167,1.06226 -18.1255,-1.72174 -19.6664,2.5641" style="fill:#808080;stroke:black;stroke-width:0.1" />
<polygon points="-21.2699,5.20615 -22.2167,1.06226 -19.6664,2.5641" style="fill:#808080;stroke:black;stroke-width:0.1" />
<polygon points="-25.232,1.40659 -22.6583,-1.90063 -22.2167,1.06226" style="fill:#808080;stroke:black;stroke-width:0.1" />
<polygon points="3.08189,10.4406 -0.439904,11.7101 0.366042,8.08215" style="fill:#808080;stroke:black;stroke-width:0.1" />
<polygon points="-7.31128,11.7685 -7.16894,8.03792 -3.45962,9.04469" style="fill:#808080;stroke:black;stroke-width:0.1" />
<polygon points="1.18617,14.9477 -0.439904,11.7101 3.08189,10.4406" style="fill:#808080;stroke:black;stroke-width:0.1" />
<polygon points="-2.26332,15 -5.7128,15.052 -3.88323,12.2785" style="fill:#808080;stroke:black;stroke-width:0.1" />
<polygon points="0.366042,8.08215 -0.439904,11.7101 -3.45962,9.04469" style="fill:#808080;stroke:black;stroke-width:0.1" />
<polygon points="-2.26332,15 -3.88323,12.2785 -0.439904,11.7101" style="fill:#808080;stroke:black;stroke-width:0.1" />
<polygon points="-7.31128,11.7685 -3.88323,12.2785 -5.7128,15.052" style="fill:#808080;stroke:black;stroke-width:0.1" />
<polygon points="-0.439904,11.7101 -3.88323,12.2785 -3.45962,9.04469" style="fill:#808080;stroke:black;stroke-width:0.1" />
<polygon points="-16.8371,-9.64857 -13.6228,-8.14464 -16.2652,-5.54561" style="fill:#808080;stroke:black;stroke-width:0.1" />
<polygon points="-14.5308,-2.44401 -10.3384,-6.79158 -10.9396,-2.05511" style="fill:#808080;stroke:black;stroke-width:0.1" />
<polygon points="-16.8371,-9.64857 -14.9171,-14.788 -13.3111,-11.6977" style="fill:#808080;stroke:black;stroke-width:0.1" />
<polygon points="-14.5308,-2.44401 -13.6228,-8.14464 -10.3384,-6.79158" style="fill:#808080;stroke:black;stroke-width:0.1" />
<polygon points="-8.01844,-14.8763 -10.0122,-10.3961 -11.4678,-14.8296" style="fill:#808080;stroke:black;stroke-width:0.1" />
<polygon points="-16.8371,-9.64857 -13.3111,-11.6977 -13.6228,-8.14464" style="fill:#808080;stroke:black;stroke-width:0.1" />
<polygon points="-14.5308,-2.44401 -10.9396,-2.05511 -11.5753,2.21574" style="fill:#808080;stroke:black;stroke-width:0.1" />
<polygon points="-18.1255,-1.72174 -16.2652,-5.54561 -14.5308,-2.44401" style="fill:#808080;stroke:black;stroke-width:0.1" />
<polygon points="0.366042,8.08215 0.744346,4.49346 3.26508,5.63959" style="fill:#808080;stroke:black;stroke-width:0.1" />
<polygon points="-2.04073,0.705839 0.744346,4.49346 -1.98902,5.36484" style="fill:#808080;stroke:black;stroke-width:0.1" />
<polygon points="-2.38424,-8.60644 0.144976,-6.48592 -3.19842,-5.66958" style="fill:#808080;stroke:black;stroke-width:0.1" />
<polygon points="3.44333,-8.10613 0.144976,-6.48592 0.409847,-9.8833" style="fill:#808080;stroke:black;stroke-width:0.1" />
<polygon points="0.409847,-9.8833 2.32998,-15.0302 3.93005,-11.7887" style="fill:#808080;stroke:black;stroke-width:0.1" />
<polygon points="3.44333,-8.10613 6.83862,-7.08259 4.20342,-4.83472" style="fill:#808080;stroke:black;stroke-width:0.1" />
<polygon points="9.22884,-15.1291 7.26498,-10.6531 5.77944,-15.081" style="fill:#808080;stroke:black;stroke-width:0.1" />
<polygon points="0.409847,-9.8833 3.93005,-11.7887 3.44333,-8.10613" style="fill:#808080;stroke:black;stroke-width:0.1" />
<polygon points="5.67193,1.96269 3.2564,-0.88696 6.30771,-2.30824" style="fill:#808080;stroke:black;stroke-width:0.1" />
<polygon points="1.04163,1.67337 1.12205,-3.28704 3.2564,-0.88696" style="fill:#808080;stroke:black;stroke-width:0.1" />
<polygon points="3.2564,-0.88696 4.20342,-4.83472 6.30771,-2.30824" style="fill:#808080;stroke:black;stroke-width:0.1" />
<polygon points="4.20342,-4.83472 1.12205,-3.28704 0.144976,-6.48592" style="fill:#808080;stroke:black;stroke-width:0.1" />
<polygon points="-31.5816,11.894 -29.7335,8.39774 -27.9612,10.796" style="fill:#808080;stroke:black;stroke-width:0.1" />
<polygon points="-31.4331,4.637 -29.7335,8.39774 -32.7741,8.39315" style="fill:#808080;stroke:black;stroke-width:0.1" />
<polygon points="43.9992,-3.63909 41.6913,-7.26232 44.8228,-7.6749" style="fill:#808080;stroke:black;stroke-width:0.1" />
<polygon points="37.3604,-8.33776 41.6913,-7.26232 40.1298,-4.49973" style="fill:#808080;stroke:black;stroke-width:0.1" />
<polygon points="-27.7189,-0.586884 -31.5234,-2.42618 -26.3314,-3.58175" style="fill:#808080;stroke:black;stroke-width:0.1" />
<polygon points="-31.4331,4.637 -30.7981,0.586134 -28.5217,2.64335" style="fill:#808080;stroke:black;stroke-width:0.1" />
<polygon points="27.2215,-1.08542 26.3516,2.64242 23.194,1.04701" style="fill:#808080;stroke:black;stroke-width:0.1" />
<polygon points="27.6375,6.04713 26.3516,2.64242 29.9414,2.24287" style="fill:#808080;stroke:black;stroke-width:0.1" />
<polygon points="-13.6228,-8.14464 -10.0122,-10.3961 -10.3384,-6.79158" style="fill:#808080;stroke:black;stroke-width:0.1" />
<polygon points="-10.0122,-10.3961 -13.3111,-11.6977 -11.4678,-14.8296" style="fill:#808080;stroke:black;stroke-width:0.1" />
<polygon points="3.44333,-8.10613 7.26498,-10.6531 6.83862,-7.08259" style="fill:#808080;stroke:black;stroke-width:0.1" />
<polygon points="7.26498,-10.6531 3.93005,-11.7887 5.77944,-15.081" style="fill:#808080;stroke:black;stroke-width:0.1" />
<polygon points="-28.5217,2.64335 -27.7189,-0.586884 -25.232,1.40659" style="fill:#808080;stroke:black;stroke-width:0.1" />
<polygon points="-31.5234,-2.42618 -27.7189,-0.586884 -30.7981,0.586134" style="fill:#808080;stroke:black;stroke-width:0.1" />
<polygon points="-19.6308,-8.38709 -20.2216,-11.3076 -16.8371,-9.64857" style="fill:#808080;stroke:black;stroke-width:0.1" />
<polygon points="-21.8152,-14.7256 -20.2216,-11.3076 -23.735,-9.5943" style="fill:#808080;stroke:black;stroke-width:0.1" />
<polygon points="-16.2652,-5.54561 -19.6308,-8.38709 -16.8371,-9.64857" style="fill:#808080;stroke:black;stroke-width:0.1" />
<polygon points="-19.6308,-8.38709 -20.4449,-5.45496 -23.8346,-6.11403" style="fill:#808080;stroke:black;stroke-width:0.1" />
<polygon points="-1.11951,-14.978 -2.97512,-11.5221 -4.56899,-14.9263" style="fill:#808080;stroke:black;stroke-width:0.1" />
<polygon points="-2.38424,-8.60644 -2.97512,-11.5221 0.409847,-9.8833" style="fill:#808080;stroke:black;stroke-width:0.1" />
<polygon points="0.144976,-6.48592 -2.38424,-8.60644 0.409847,-9.8833" style="fill:#808080;stroke:black;stroke-width:0.1" />
<polygon points="-6.11752,-6.68506 -2.38424,-8.60644 -3.19842,-5.66958" style="fill:#808080;stroke:black;stroke-width:0.1" />
<polygon points="14.8627,-8.84444 14.2719,-11.7631 17.6565,-10.1062" style="fill:#808080;stroke:black;stroke-width:0.1" />
<polygon points="12.6782,-15.1729 14.2719,-11.7631 10.7581,-10.0308" style="fill:#808080;stroke:black;stroke-width:0.1" />
<polygon points="17.1349,-6.9269 14.8627,-8.84444 17.6565,-10.1062" style="fill:#808080;stroke:black;stroke-width:0.1" />
<polygon points="11.1534,-6.95442 14.8627,-8.84444 14.0486,-5.91065" style="fill:#808080;stroke:black;stroke-width:0.1" />
<polygon points="-22.6583,-1.90063 -23.8346,-6.11403 -20.4449,-5.45496" style="fill:#808080;stroke:black;stroke-width:0.1" />
<polygon points="-27.8405,-6.34075 -23.8346,-6.11403 -26.3314,-3.58175" style="fill:#808080;stroke:black;stroke-width:0.1" />
<polygon points="-29.8564,15.2791 -31.5816,11.894 -27.9612,10.796" style="fill:#808080;stroke:black;stroke-width:0.1" />
<polygon points="-33.3047,15.2735 -36.7528,15.2531 -34.9675,12.3108" style="fill:#808080;stroke:black;stroke-width:0.1" />
<polygon points="-38.3632,12.2643 -38.2321,8.82907 -35.46,9.50112" style="fill:#808080;stroke:black;stroke-width:0.1" />
<polygon points="-33.3047,15.2735 -34.9675,12.3108 -31.5816,11.894" style="fill:#808080;stroke:black;stroke-width:0.1" />
<polygon points="-35.3588,5.21707 -35.46,9.50112 -38.2321,8.82907" style="fill:#808080;stroke:black;stroke-width:0.1" />
<polygon points="-32.7741,8.39315 -34.9675,12.3108 -35.46,9.50112" style="fill:#808080;stroke:black;stroke-width:0.1" />
<polygon points="23.0253,-15.2621 26.4739,-15.2732 24.9818,-12.4472" style="fill:#808080;stroke:black;stroke-width:0.1" />
<polygon points="27.8704,-4.64288 23.1042,-6.48944 27.9296,-8.23612" style="fill:#808080;stroke:black;stroke-width:0.1" />
<polygon points="20.2707,-7.98874 20.76,-3.82267 17.1349,-6.9269" style="fill:#808080;stroke:black;stroke-width:0.1" />
<polygon points="27.9296,-8.23612 23.1042,-6.48944 22.9652,-9.95106" style="fill:#808080;stroke:black;stroke-width:0.1" />
<polygon points="17.6565,-10.1062 20.2707,-7.98874 17.1349,-6.9269" style="fill:#808080;stroke:black;stroke-width:0.1" />
<polygon points="22.9652,-9.95106 23.1042,-6.48944 20.2707,-7.98874" style="fill:#808080;stroke:black;stroke-width:0.1" />
<polygon points="27.9296,-8.23612 24.9818,-12.4472 28.0719,-11.9656" style="fill:#808080;stroke:black;stroke-width:0.1" />
<polygon points="24.9818,-12.4472 22.9652,-9.95106 20.4616,-12.0599" style="fill:#808080;stroke:black;stroke-width:0.1" />
<polygon points="17.6565,-10.1062 19.5764,-15.2412 20.4616,-12.0599" style="fill:#808080;stroke:black;stroke-width:0.1" />
<polygon points="23.0253,-15.2621 20.4616,-12.0599 19.5764,-15.2412" style="fill:#808080;stroke:black;stroke-width:0.1" />
</svg>
